<?xml version="1.0" encoding="UTF-8"?>
<!DOCTYPE svg PUBLIC "-//W3C//DTD SVG 1.1//EN" "http://www.w3.org/Graphics/SVG/1.1/DTD/svg11.dtd">
<!-- Creator: CorelDRAW 2019 (64-Bit) -->
<svg xmlns="http://www.w3.org/2000/svg" xml:space="preserve" width="1.46668in" height="1.15288in" version="1.1" style="shape-rendering:geometricPrecision; text-rendering:geometricPrecision; image-rendering:optimizeQuality; fill-rule:evenodd; clip-rule:evenodd"
viewBox="0 0 1461.08 1148.48"
 xmlns:xlink="http://www.w3.org/1999/xlink">
 <defs>
  <style type="text/css">
   <![CDATA[
    .fil2 {fill:#01D1B2}
    .fil1 {fill:#01D1B2}
    .fil0 {fill:#394149}
   ]]>
  </style>
 </defs>
 <g id="Layer_x0020_1">
  <metadata id="CorelCorpID_0Corel-Layer"/>
  <g id="_1852883234048">
   <path class="fil0" d="M348.7 1148.48c-86.28,0 -173.55,-70.6 -193.93,-156.88l-153.14 -648.45c-11.75,-79.83 40.9,-142.96 122.49,-142.96l498.3 0c3.99,0 7.98,0.15 11.96,0.45l-166.45 704.84 -20.34 86.13c-25.6,106.3 -51.2,129.14 -98.89,156.88z"/>
   <path class="fil1" d="M909.04 609.71c6.53,2.82 13.99,4.48 22.16,4.73l348.55 10.42c36.03,1.07 72.93,-25.76 82.02,-59.65l35 -130.63 -1.04 0 -40.94 0 -289.36 0c-63.65,0 -128.76,51.91 -143.07,115.73l-13.32 59.39z"/>
   <path class="fil2" d="M838.65 0l498.3 0c86.28,0 140.21,70.6 119.83,156.88l-46.97 198.9 -378.49 0c-72.94,0 -147.54,59.48 -163.94,132.61l-103.09 459.85 -17.19 72.8 -0.94 3.86 -0.08 0.31 -0.86 3.46 -0.15 0.6 -0.79 3.09 -0 0.01c-0.61,2.36 -1.22,4.68 -1.84,6.93l-0.07 0.28 -0.86 3.12 -0.1 0.36 -0.77 2.75 -0.27 0.93 -0.74 2.55 -0.07 0.24 -0.61 2.06 -0.34 1.14 -0.2 0.66 -0.75 2.46 -0.76 2.45 -0.19 0.6 -0.85 2.62 -0.11 0.35 -0.93 2.79 -0.04 0.11 -0.97 2.83 -0.04 0.12 -0.93 2.64 -0.12 0.33 -0.86 2.36 -0.2 0.53 -0.79 2.09 -0.28 0.73 -0.71 1.83 -0.07 0.16 -0.73 1.84 -0.2 0.49 -0.44 1.08 -0.56 1.35 -0.22 0.52 -0.57 1.34 -0.47 1.08 -0.65 1.47 -0.12 0.27 -0.7 1.54 -0.33 0.71 -0.39 0.82 -0.6 1.27 -0.23 0.47 -0.84 1.73 -0.03 0.05 -0.97 1.93 -0.08 0.16 -1.06 2.03 0 0.01 -1.07 1.97 -0.8 1.43 -0.27 0.49 -0.18 0.31 -0.29 0.5 -0.82 1.4 -0.3 0.49 -0.8 1.32 -0.16 0.26 -0.75 1.2 -0.14 0.22 -0.93 1.44 -0.08 0.12 -1.03 1.54 -0.16 0.24 -0.98 1.41 -0.18 0.25 -0.98 1.37 -0.21 0.28 -1.02 1.37 -0.02 0.03 -1.12 1.46 -0.04 0.05 -1.05 1.32 -0.14 0.17 -1.16 1.41 -0.05 0.05 -1.22 1.42 -0.05 0.06 -1.18 1.33 -0.15 0.17 -1.09 1.19 -0.09 0.1 -1.07 1.12 -0.13 0.14 -1.24 1.27 -0.01 0.01 -1.07 1.06 -0.42 0.41 -0.86 0.83 -0.43 0.4 -1 0.93 -0.29 0.26 -1.02 0.92 -0.5 0.44 -0.92 0.8 -0.27 0.23c-0.85,0.73 -1.71,1.44 -2.59,2.15l-1.3 1.04 -0.11 0.08 -1.42 1.1 -0.01 0 -1.44 1.08 -0.13 0.09 -1.34 0.98 -0.24 0.18 -1.24 0.89 -0.36 0.26 -1.13 0.79 -1.2 0.82 -0.32 0.22 -0.62 0.42 -0.92 0.61 -0.75 0.5 -0.81 0.53 -0.89 0.58 -0.69 0.44 -1.03 0.65 -0.57 0.36 -1.18 0.74 -0.45 0.27 -104.74 0 -218.73 0c47.7,-27.74 73.29,-50.58 98.89,-156.88l20.34 -86.13 176.79 -748.6c20.37,-86.28 107.64,-156.88 193.93,-156.88z"/>
  </g>
 </g>
</svg>
